<?xml version="1.0" encoding="UTF-8"?>
<svg width="20px" height="21px" viewBox="0 0 20 21" version="1.1" xmlns="http://www.w3.org/2000/svg" xmlns:xlink="http://www.w3.org/1999/xlink">
    <!-- Generator: Sketch 52.6 (67491) - http://www.bohemiancoding.com/sketch -->
    <title>SVGID_1_-path</title>
    <desc>Created with Sketch.</desc>
    <g id="Page-1" stroke="none" stroke-width="1" fill="none" fill-rule="evenodd">
        <path d="M2.42458736,2.7148289 L16.4940239,2.7148289 C16.801366,3.30798479 17.4274331,3.71863118 18.1445646,3.71863118 C19.1690381,3.71863118 20,2.88593156 20,1.85931559 C20,0.83269962 19.1690381,0 18.1331816,0 C17.3591349,0 16.6875356,0.479087452 16.4143426,1.1634981 L2.42458736,1.1634981 C1.07000569,1.1634981 0,2.20152091 0,3.51330798 L0,18.5247148 C0,19.8593156 1.11553785,21 2.42458736,21 L17.393284,21 C18.7137166,21 19.7837223,19.8935361 19.7837223,18.5247148 L19.7837223,9.62737643 C19.7837223,8.29277567 18.7137166,7.19771863 17.393284,7.19771863 L8.51451338,7.19771863 C7.1599317,7.19771863 6.01024474,8.31558935 6.01024474,9.62737643 L6.01024474,12.4220532 C6.01024474,13.7224335 7.13716562,14.7718631 8.51451338,14.7718631 L11.6107001,14.7718631 C11.883893,15.4562738 12.5554923,15.9353612 13.329539,15.9353612 C14.3540125,15.9353612 15.1849744,15.1026616 15.1849744,14.0760456 C15.1849744,13.0494297 14.3540125,12.21673 13.329539,12.21673 C12.6124075,12.21673 11.9863404,12.6273764 11.6789983,13.2205323 L8.51451338,13.2205323 C8.0591918,13.2205323 7.56972112,12.9125475 7.56972112,12.4220532 L7.56972112,9.61596958 C7.56972112,9.15969582 8.02504269,8.73764259 8.51451338,8.73764259 L17.393284,8.73764259 C17.8599886,8.73764259 18.2356289,9.12547529 18.2356289,9.61596958 L18.2356289,18.513308 C18.2356289,19.0038023 17.8486056,19.4258555 17.393284,19.4258555 L2.42458736,19.4258555 C1.95788275,19.4258555 1.54809334,18.9923954 1.54809334,18.513308 L1.54809334,3.51330798 C1.54809334,3.06844106 1.92373364,2.7148289 2.42458736,2.7148289 Z" id="SVGID_1_-path" fill="#FFFFFF"></path>
    </g>
</svg>